<svg id="Layer_1" data-name="Layer 1" xmlns="http://www.w3.org/2000/svg" viewBox="0 0 140 140"><defs><style>.cls-1{fill:#ffffff;}.cls-2{fill:#ffffff;}.cls-3,.cls-4{fill:none;stroke-miterlimit:10;stroke-width:2px;}.cls-3{stroke:#293052;}.cls-4{stroke:#e88024;}</style></defs><title>affiliate_program</title><rect class="cls-1" x="1" y="1" width="138" height="138"/><path class="cls-2" d="M138,2V138H2V2H138m2-2H0V140H140V0Z"/><path class="cls-3" d="M70,34a6.5,6.5,0,1,0-6.5-6.5A6.52,6.52,0,0,0,70,34Zm0,3.25c-4.39,0-13,2.11-13,6.5V47H83V43.75C83,39.36,74.39,37.25,70,37.25Z"/><path class="cls-3" d="M70,90a6.5,6.5,0,1,0-6.5-6.5A6.52,6.52,0,0,0,70,90Zm0,3.25c-4.39,0-13,2.11-13,6.5V103H83V99.75C83,95.36,74.39,93.25,70,93.25Z"/><path class="cls-3" d="M106,90a6.5,6.5,0,1,0-6.5-6.5A6.52,6.52,0,0,0,106,90Zm0,3.25c-4.39,0-13,2.11-13,6.5V103h26V99.75C119,95.36,110.39,93.25,106,93.25Z"/><path class="cls-3" d="M34,90a6.5,6.5,0,1,0-6.5-6.5A6.52,6.52,0,0,0,34,90Zm0,3.25c-4.39,0-13,2.11-13,6.5V103H47V99.75C47,95.36,38.39,93.25,34,93.25Z"/><polyline class="cls-4" points="106 75 106 63 34 63 34 75"/><line class="cls-4" x1="70" y1="72" x2="70" y2="52"/></svg>