<svg id="Layer_1" data-name="Layer 1" xmlns="http://www.w3.org/2000/svg" viewBox="0 0 140 140"><defs><style>.cls-1{fill:#ffffff;}.cls-2{fill:#ffffff;}.cls-3,.cls-5,.cls-6{fill:none;stroke-miterlimit:10;}.cls-3,.cls-6{stroke:#2a3052;}.cls-3,.cls-5{stroke-width:2px;}.cls-4{fill:#2a3052;}.cls-5{stroke:#e98024;}.cls-6{stroke-width:2px;}</style></defs><title>daily_report</title><rect class="cls-1" x="1" y="1" width="138" height="138"/><path class="cls-2" d="M138,2V138H2V2H138m2-2H0V140H140V0Z"/><circle class="cls-3" cx="70.5" cy="59.5" r="32.5"/><line class="cls-3" x1="103.38" y1="92.45" x2="93.23" y2="82.3"/><polygon class="cls-4" points="116.31 109.07 120 105.38 103.39 88.7 99.69 92.45 116.31 109.07"/><polyline class="cls-5" points="47.15 70.22 64.61 52.76 73.85 61.99 91.39 44.45"/><line class="cls-5" x1="29.08" y1="88.3" x2="39.69" y2="77.68"/><line class="cls-5" x1="98.77" y1="37.99" x2="111.69" y2="25.07"/><polyline class="cls-5" points="105 25 112 25 112 31"/><polyline class="cls-6" points="93 36.05 93 21 21 21 21 105 35 119 93 119 93 83.31"/><rect class="cls-4" x="50" y="101" width="32" height="4"/><polyline class="cls-6" points="21 105 35 105 35 119"/></svg>