<svg id="Layer_1" data-name="Layer 1" xmlns="http://www.w3.org/2000/svg" viewBox="0 0 140 140"><defs><style>.cls-1{fill:#f2f2f2;}.cls-2{fill:#c2c2c2;}.cls-3,.cls-4{fill:none;stroke-miterlimit:10;stroke-width:2px;}.cls-3{stroke:#293052;}.cls-4{stroke:#e88024;}.cls-5{fill:#e88024;}</style></defs><title>btv_icon</title><rect class="cls-1" x="1" y="1" width="138" height="138"/><path class="cls-2" d="M138,2V138H2V2H138m2-2H0V140H140V0Z"/><polyline class="cls-3" points="91 91 21 91 21 21 119 21 119 91 115 91"/><polyline class="cls-3" points="91 82 25 82 25 25 115 25 115 65"/><polyline class="cls-3" points="91 111 30 111 35 104 91 104"/><rect class="cls-3" x="60" y="91" width="20" height="13"/><rect class="cls-4" x="91" y="66" width="24" height="53"/><rect class="cls-5" x="96" y="100" width="14" height="14" rx="7" ry="7"/><path class="cls-5" d="M51.5,50.5a5.25,5.25,0,1,0-5.25-5.25A5.27,5.27,0,0,0,51.5,50.5Zm0,2.63C48,53.13,41,54.83,41,58.38V61H62V58.38C62,54.83,55,53.13,51.5,53.13Z"/><rect class="cls-5" x="68" y="40" width="30" height="2"/><rect class="cls-5" x="68" y="46" width="30" height="2"/><rect class="cls-5" x="68" y="52" width="30" height="2"/><rect class="cls-5" x="96" y="89" width="5" height="3"/><rect class="cls-5" x="105" y="89" width="5" height="3"/><rect class="cls-5" x="96" y="83" width="5" height="3"/><rect class="cls-5" x="105" y="83" width="5" height="3"/><rect class="cls-5" x="96" y="77" width="5" height="3"/><rect class="cls-5" x="96" y="70" width="5" height="3" rx="1.5" ry="1.5"/><rect class="cls-5" x="105" y="77" width="5" height="3"/></svg>