<svg id="Layer_1" data-name="Layer 1" xmlns="http://www.w3.org/2000/svg" viewBox="0 0 140 140"><defs><style>.cls-1{fill:#f2f2f2;}.cls-2{fill:#c2c2c2;}.cls-3,.cls-4,.cls-6{fill:none;stroke-miterlimit:10;stroke-width:2px;}.cls-3{stroke:#293052;}.cls-4{stroke:#e88024;}.cls-5{fill:#2a3052;}.cls-6{stroke:#e98024;}</style></defs><title>mtm_icon</title><rect class="cls-1" x="1" y="1" width="138" height="138"/><path class="cls-2" d="M138,2V138H2V2H138m2-2H0V140H140V0Z"/><path class="cls-3" d="M30,119h77a12,12,0,0,0,12-12V21H39V59"/><rect class="cls-3" x="49" y="29" width="60" height="32"/><rect class="cls-4" x="78" y="73" width="31" height="34"/><path class="cls-3" d="M21,59H39a0,0,0,0,1,0,0v51a9,9,0,0,1-9,9h0a9,9,0,0,1-9-9V59A0,0,0,0,1,21,59Z"/><rect class="cls-5" x="48" y="72" width="24" height="2"/><rect class="cls-5" x="48" y="77" width="24" height="2"/><rect class="cls-5" x="48" y="82" width="24" height="2"/><rect class="cls-5" x="48" y="87" width="19" height="2"/><rect class="cls-5" x="48" y="96" width="24" height="2"/><rect class="cls-5" x="48" y="101" width="24" height="2"/><rect class="cls-5" x="48" y="106" width="24" height="2"/><polyline class="cls-6" points="55 54 61 48 65 52 74 43 78 43 81 40 85 44 92 37 99 37 102 34"/></svg>