<svg id="Layer_1" data-name="Layer 1" xmlns="http://www.w3.org/2000/svg" viewBox="0 0 140 140"><defs><style>.cls-1{fill:#f2f2f2;}.cls-2{fill:#c2c2c2;}.cls-3,.cls-5{fill:none;stroke-width:2px;}.cls-3{stroke:#2a3052;stroke-miterlimit:10;}.cls-4{fill:#293052;}.cls-5{stroke:#e98024;stroke-linejoin:round;}</style></defs><title>ctc_icon</title><rect class="cls-1" x="1" y="1" width="138" height="138"/><path class="cls-2" d="M138,2V138H2V2H138m2-2H0V140H140V0Z"/><path class="cls-3" d="M119.94,93.29A20.11,20.11,0,1,1,99.84,73.19a20.11,20.11,0,0,1,20.11,20.11"/><path class="cls-4" d="M98.52,100.17,100,94.64l3.48-1.27.87-3.25,0-.08-3.42,1.25L103.34,82H96.25L93.12,93.79l-2.62,1L89.63,98l2.62-1L90.4,104h18.55l1.19-4H99"/><path class="cls-3" d="M60.15,93.29A20.11,20.11,0,1,1,40,73.19,20.11,20.11,0,0,1,60.15,93.29"/><path class="cls-4" d="M40,97.61,47,93.5,40,82,33.11,93.5,40,97.61Z"/><polygon class="cls-4" points="40.05 104.6 46.99 94.82 40.05 98.92 33.1 94.82 40.05 104.6"/><path class="cls-3" d="M90,46.32A20.11,20.11,0,1,1,69.94,26.21,20.11,20.11,0,0,1,90,46.32"/><path class="cls-4" d="M78.44,44.1c.35-2.38-1.45-3.65-3.93-4.51l.8-3.22-2-.49L72.58,39,71,38.65l.79-3.16-2-.49L69,38.23l-1.25-.29h0l-2.7-.67-.52,2.09s1.45.33,1.42.35a1,1,0,0,1,.91,1.14L66,44.5l.2.07L66,44.52,64.7,49.66a.71.71,0,0,1-.9.47s-1.42-.36-1.42-.36L61.4,52l2.55.64,1.4.36-.81,3.26,2,.49.8-3.22,1.56.41-.8,3.21,2,.49.81-3.25c3.34.63,5.85.38,6.91-2.64.85-2.43,0-3.84-1.8-4.75a3.13,3.13,0,0,0,2.5-2.88ZM74,50.38c-.61,2.43-4.7,1.12-6,.79L69,46.86c1.33.33,5.59,1,5,3.53Zm.61-6.31c-.55,2.21-4,1.09-5.07.81l1-3.91C71.58,41.24,75.15,41.76,74.57,44.07Z"/><path class="cls-5" d="M92.43,56.92a25.37,25.37,0,0,1,3.24,11.72q0,.37,0,.75"/><path class="cls-5" d="M44.68,69.38q0-.46,0-.92A25.36,25.36,0,0,1,48,56.86"/><path class="cls-5" d="M75.6,94.31a25.73,25.73,0,0,1-11,0"/></svg>