<svg id="Layer_1" data-name="Layer 1" xmlns="http://www.w3.org/2000/svg" viewBox="0 0 140 140"><defs><style>.cls-1{fill:#f2f2f2;}.cls-2{fill:#c2c2c2;}.cls-3{fill:none;stroke:#2a3052;stroke-miterlimit:10;stroke-width:2px;}.cls-4{fill:#e88024;}.cls-5{fill:#293052;}.cls-6{fill:#2a3052;}</style></defs><title>lc_icon</title><rect class="cls-1" x="1" y="1" width="138" height="138"/><path class="cls-2" d="M138,2V138H2V2H138m2-2H0V140H140V0Z"/><path class="cls-3" d="M120,109H84.62A37.1,37.1,0,0,0,70,112h0a37.1,37.1,0,0,0-14.61-3H20V29H55.38A37.1,37.1,0,0,1,70,32h0a37.1,37.1,0,0,1,14.61-3H120Z"/><path class="cls-3" d="M120,99H80.73a16.76,16.76,0,0,0-5.52,1.13l-5.52,2.37-5.52-2.37A16.76,16.76,0,0,0,58.64,99H20"/><line class="cls-3" x1="70" y1="32" x2="70" y2="112"/><polygon class="cls-4" points="38 49 35 46 32 49 32 30 38 30 38 49"/><rect class="cls-5" x="80" y="39" width="35" height="2"/><rect class="cls-5" x="80" y="70" width="35" height="2"/><rect class="cls-5" x="80" y="76" width="35" height="2"/><rect class="cls-5" x="80" y="82" width="35" height="2"/><rect class="cls-5" x="80" y="88" width="26" height="2"/><path class="cls-6" d="M113,47V64H82V47h31m2-2H80V66h35V45Z"/></svg>