<svg id="Layer_1" data-name="Layer 1" xmlns="http://www.w3.org/2000/svg" viewBox="0 0 140 140"><defs><style>.cls-1{fill:#f2f2f2;}.cls-2{fill:#c2c2c2;}.cls-3,.cls-5{fill:none;stroke-miterlimit:10;stroke-width:2px;}.cls-3{stroke:#293052;}.cls-4{fill:#293052;}.cls-5{stroke:#e88024;}</style></defs><title>api_developers</title><rect class="cls-1" x="1" y="1" width="138" height="138"/><path class="cls-2" d="M138,2V138H2V2H138m2-2H0V140H140V0Z"/><polyline class="cls-3" points="119 83 119 23 21 23 21 93 70 93"/><polyline class="cls-3" points="115 74 115 34 25 34 25 89 70 89"/><circle class="cls-4" cx="27.5" cy="28.5" r="2.5"/><circle class="cls-4" cx="35.5" cy="28.5" r="2.5"/><circle class="cls-4" cx="43.5" cy="28.5" r="2.5"/><path class="cls-5" d="M119,94V83h-6.23a18.89,18.89,0,0,0-1.49-3.61l4.4-4.4L108,67.32l-4.4,4.4A18.87,18.87,0,0,0,100,70.23V64H89v6.23a18.88,18.88,0,0,0-3.61,1.49L81,67.32,73.32,75l4.4,4.4A18.89,18.89,0,0,0,76.23,83H70V94h6.23a18.9,18.9,0,0,0,1.49,3.61l-4.4,4.4L81,109.68l4.4-4.4A18.88,18.88,0,0,0,89,106.77V113h11v-6.23a18.87,18.87,0,0,0,3.61-1.49l4.4,4.4,7.68-7.68-4.4-4.4A18.9,18.9,0,0,0,112.77,94Z"/><circle class="cls-5" cx="95" cy="88" r="10"/><path class="cls-3" d="M51,60a8,8,0,1,0-8-8A8,8,0,0,0,51,60Zm0,4c-5.4,0-16,2.6-16,8v4H67V72C67,66.6,56.4,64,51,64Z"/></svg>