<svg id="Layer_1" data-name="Layer 1" xmlns="http://www.w3.org/2000/svg" viewBox="0 0 140 140"><defs><style>.cls-1{fill:#f2f2f2;}.cls-2{fill:#c2c2c2;}.cls-3,.cls-5{fill:none;stroke-miterlimit:10;stroke-width:2px;}.cls-3{stroke:#e88024;}.cls-4{fill:#e88024;}.cls-5{stroke:#293052;}</style></defs><title>commodties_corner</title><rect class="cls-1" x="1" y="1" width="138" height="138"/><path class="cls-2" d="M138,2V138H2V2H138m2-2H0V140H140V0Z"/><rect class="cls-3" x="53" y="43" width="34" height="20" rx="4" ry="4"/><polygon class="cls-4" points="66 47.08 74.74 52.91 66 58.74 66 47.08"/><polyline class="cls-5" points="75 94 21 94 21 24 119 24 119 94 115 94"/><polyline class="cls-5" points="75 78 25 78 25 28 115 28 115 63"/><polyline class="cls-5" points="75 113 25 113 25 117 76 117"/><polyline class="cls-5" points="75 113 59.85 113 62.9 94 75 94"/><rect class="cls-3" x="75" y="63" width="40" height="56"/><line class="cls-3" x1="71" y1="63" x2="119" y2="63"/><line class="cls-3" x1="71" y1="73" x2="119" y2="73"/><line class="cls-3" x1="71" y1="78" x2="119" y2="78"/><line class="cls-3" x1="71" y1="106" x2="119" y2="106"/><line class="cls-3" x1="71" y1="111" x2="119" y2="111"/><line class="cls-3" x1="71" y1="119" x2="119" y2="119"/><path class="cls-3" d="M101.76,94.24a6.76,6.76,0,0,1-13.52,0c0-3.73,6.76-11.49,6.76-11.49S101.76,90.51,101.76,94.24Z"/></svg>