<svg id="Layer_1" data-name="Layer 1" xmlns="http://www.w3.org/2000/svg" viewBox="0 0 140 140"><defs><style>.cls-1,.cls-4{fill:#f2f2f2;}.cls-2{fill:#c2c2c2;}.cls-3,.cls-5{fill:none;}.cls-3{stroke:#293052;}.cls-3,.cls-4,.cls-5{stroke-miterlimit:10;stroke-width:2px;}.cls-4,.cls-5{stroke:#e98024;}</style></defs><title>faq</title><rect class="cls-1" x="1" y="1" width="138" height="138"/><path class="cls-2" d="M138,2V138H2V2H138m2-2H0V140H140V0Z"/><polygon class="cls-3" points="76.13 82.25 91.88 82.25 91.88 82.25 97.13 95.38 101.5 95.38 85.75 55.13 82.25 55.13 66.5 95.38 70.88 95.38 76.13 82.25 76.13 82.25"/><polygon class="cls-3" points="77.35 77.88 90.65 77.88 90.65 77.88 84 61.25 77.35 77.88"/><path class="cls-3" d="M119,101.5V119l-14.94-14.94a8.75,8.75,0,0,0-6.19-2.56H57.75A8.75,8.75,0,0,1,49,92.75v-35A8.75,8.75,0,0,1,57.75,49h52.5A8.75,8.75,0,0,1,119,57.75Z"/><path class="cls-4" d="M91,65.17V30a8.71,8.71,0,0,0-8.75-8.67H29.75A8.71,8.71,0,0,0,21,30V91.33L35.93,76.4a8.79,8.79,0,0,1,6.22-2.57h40.1A8.71,8.71,0,0,0,91,65.17Z"/><rect class="cls-5" x="43" y="31" width="26" height="26" rx="13" ry="13"/><path class="cls-5" d="M61.25,60.88a17.53,17.53,0,0,1-5.25.88h0a17.5,17.5,0,0,1-17.5-17.5h0A17.5,17.5,0,0,1,56,26.75h0a17.5,17.5,0,0,1,17.5,17.5h0a17.94,17.94,0,0,1-7.87,14.87h0L73.5,67H67.38l-6.12-6.12Z"/></svg>