<svg id="Layer_1" data-name="Layer 1" xmlns="http://www.w3.org/2000/svg" viewBox="0 0 140 140"><defs><style>.cls-1{fill:#f2f2f2;}.cls-2{fill:#c2c2c2;}.cls-3,.cls-4{fill:none;stroke-miterlimit:10;stroke-width:2px;}.cls-3{stroke:#293052;}.cls-4{stroke:#e88024;}</style></defs><title>glossary</title><rect class="cls-1" x="1" y="1" width="138" height="138"/><path class="cls-2" d="M138,2V138H2V2H138m2-2H0V140H140V0Z"/><polyline class="cls-3" points="119 41 119 119 31 119"/><line class="cls-3" x1="21" y1="109" x2="21" y2="33"/><path class="cls-3" d="M119,41H31A10,10,0,0,1,21,31h0A10,10,0,0,1,31,21h88"/><path class="cls-3" d="M120,21h-1a10,10,0,0,0-10,10h0a10,10,0,0,0,10,10h1"/><path class="cls-3" d="M119,119H31a10,10,0,0,1-10-10h0"/><line class="cls-3" x1="28" y1="31" x2="109" y2="31"/><circle class="cls-4" cx="71.5" cy="70.25" r="22.75"/><line class="cls-4" x1="111.5" y1="111.5" x2="86.5" y2="86.5"/></svg>