<svg id="Layer_1" data-name="Layer 1" xmlns="http://www.w3.org/2000/svg" viewBox="0 0 140 140"><defs><style>.cls-1{fill:#f2f2f2;}.cls-2{fill:#c2c2c2;}.cls-3{fill:none;stroke:#293052;stroke-miterlimit:10;stroke-width:2px;}.cls-4{fill:#e88024;}</style></defs><title>howtousebinarycom</title><rect class="cls-1" x="1" y="1" width="138" height="138"/><path class="cls-2" d="M138,2V138H2V2H138m2-2H0V140H140V0Z"/><rect class="cls-3" x="21" y="24" width="98" height="70"/><rect class="cls-3" x="25" y="28" width="90" height="50"/><rect class="cls-3" x="25" y="113" width="90" height="4"/><polygon class="cls-3" points="80.18 113 59.85 113 62.9 94 77.13 94 80.18 113"/><rect class="cls-3" x="31" y="34" width="48" height="38"/><rect class="cls-3" x="85" y="55" width="24" height="17"/><rect class="cls-3" x="85" y="34" width="24" height="15"/><path class="cls-4" d="M67,61l-7.15-7.15,3.44-1.91a.76.76,0,0,0-.1-1.37l-14-5.27a.76.76,0,0,0-1,1l5.27,14a.76.76,0,0,0,1.37.1l1.91-3.44L64,64Z"/></svg>