<svg id="Layer_1" data-name="Layer 1" xmlns="http://www.w3.org/2000/svg" viewBox="0 0 140 140"><defs><style>.cls-1{fill:#f2f2f2;}.cls-2{fill:#c2c2c2;}.cls-3,.cls-4{fill:none;stroke-miterlimit:10;stroke-width:2px;}.cls-3{stroke:#293052;}.cls-4{stroke:#e88024;}</style></defs><title>newtotrading</title><rect class="cls-1" x="1" y="1" width="138" height="138"/><path class="cls-2" d="M138,2V138H2V2H138m2-2H0V140H140V0Z"/><path class="cls-3" d="M70,70A24.5,24.5,0,1,0,45.5,45.5,24.57,24.57,0,0,0,70,70ZM94,86a90.45,90.45,0,0,0-24-3.74c-16.54,0-49,8-49,24.5V119H93"/><polygon class="cls-4" points="119 99 103 99 103 83 99 83 99 99 83 99 83 103 99 103 99 119 103 119 103 103 119 103 119 99"/></svg>