<svg id="Layer_1" data-name="Layer 1" xmlns="http://www.w3.org/2000/svg" viewBox="0 0 140 140"><defs><style>.cls-1{fill:#f2f2f2;}.cls-2{fill:#c2c2c2;}.cls-3,.cls-4{fill:none;stroke-miterlimit:10;stroke-width:2px;}.cls-3{stroke:#293052;}.cls-4{stroke:#e88024;}</style></defs><title>partnerwithus</title><rect class="cls-1" x="1" y="1" width="138" height="138"/><path class="cls-2" d="M138,2V138H2V2H138m2-2H0V140H140V0Z"/><path class="cls-3" d="M108,58h-8a4.43,4.43,0,0,1-2-.47l-8.72-4.36a11.11,11.11,0,0,0-5-1.17H70a10.67,10.67,0,0,0-7,2.61l-9.51,8.25a2.19,2.19,0,0,0,.45,3.61l.7.35a7,7,0,0,0,4.93.5l9.39-2.5a11.45,11.45,0,0,1,6.1.05l.81.23a11.45,11.45,0,0,1,5.35,3.33L98,87l10-2.38"/><path class="cls-3" d="M63,97.32h0A7.47,7.47,0,0,0,69.89,99l25.9-6.86a3.54,3.54,0,0,0,2.26-5h0a.89.89,0,0,0-.14-.2L81.2,68.43a11.45,11.45,0,0,0-5.35-3.33L75,64.87a11.45,11.45,0,0,0-6.1-.05l-9.39,2.5a7,7,0,0,1-4.93-.5l-.7-.35a2.19,2.19,0,0,1-.45-3.61L63,54.61A10.67,10.67,0,0,1,70,52h8a15.9,15.9,0,0,0-6.57-2.51l-7.73-1.1a10.34,10.34,0,0,0-5.24.61L33,59H32V83h9"/><rect class="cls-4" x="108" y="53" width="11" height="36"/><rect class="cls-4" x="20.81" y="53" width="11" height="36"/><path class="cls-3" d="M60,97.55l-18.2-8.7a2.41,2.41,0,0,1-1.3-2.76l.7-2.78A2.73,2.73,0,0,1,45,81.52l17.22,8.61a2.73,2.73,0,0,1,1.49,2.78l-.34,2.76A2.41,2.41,0,0,1,60,97.55Z"/></svg>