<svg id="Layer_1" data-name="Layer 1" xmlns="http://www.w3.org/2000/svg" viewBox="0 0 140 140"><defs><style>.cls-1{fill:#f2f2f2;}.cls-2{fill:#c2c2c2;}.cls-3,.cls-5{fill:none;stroke-miterlimit:10;stroke-width:2px;}.cls-3{stroke:#293052;}.cls-4{fill:#293052;}.cls-5{stroke:#e88024;}</style></defs><title>security_tip</title><rect class="cls-1" x="1" y="1" width="138" height="138"/><path class="cls-2" d="M138,2V138H2V2H138m2-2H0V140H140V0Z"/><polyline class="cls-3" points="119 71 119 26 21 26 21 96 80 96"/><polyline class="cls-3" points="115 70 115 37 25 37 25 92 79 92"/><circle class="cls-4" cx="27.5" cy="31.5" r="2.5"/><circle class="cls-4" cx="35.5" cy="31.5" r="2.5"/><circle class="cls-4" cx="43.5" cy="31.5" r="2.5"/><polyline class="cls-5" points="93 84 99 90 109 80"/><path class="cls-5" d="M106.16,109.9,99,114.2l-7.16-4.3A26.44,26.44,0,0,1,79,87.23V71l20-8,20,8V87.23A26.44,26.44,0,0,1,106.16,109.9Z"/><path class="cls-5" d="M104.65,105.69,99,109.08l-5.65-3.39A21.32,21.32,0,0,1,83,87.41V74.52l16-6.4,16,6.4V87.41A21.32,21.32,0,0,1,104.65,105.69Z"/></svg>