<svg id="Layer_1" data-name="Layer 1" xmlns="http://www.w3.org/2000/svg" viewBox="0 0 140 140"><defs><style>.cls-1{fill:#f2f2f2;}.cls-2{fill:#c2c2c2;}.cls-3,.cls-4{fill:none;stroke-miterlimit:10;stroke-width:2px;}.cls-3{stroke:#293052;}.cls-4{stroke:#e98024;}</style></defs><title>webinar</title><rect class="cls-1" x="1" y="1" width="138" height="138"/><path class="cls-2" d="M138,2V138H2V2H138m2-2H0V140H140V0Z"/><polyline class="cls-3" points="51 50 51 33 119 33 119 77 51 77 51 55"/><line class="cls-3" x1="84" y1="78" x2="84" y2="106"/><polyline class="cls-3" points="68.87 106.32 84.11 91.08 99.34 106.32"/><polyline class="cls-3" points="58 70 111 70 111 37"/><polyline class="cls-4" points="62.11 65.76 73.72 53.25 81.61 58.99 90.86 48.31 96.74 52.82 104.2 43.87"/><line class="cls-3" x1="61" y1="106" x2="108" y2="106"/><circle class="cls-3" cx="35.5" cy="40.5" r="6.5"/><path class="cls-3" d="M21,77V54.9A4.9,4.9,0,0,1,25.9,50H63v5H46.59A2.59,2.59,0,0,0,44,57.59V108H39V83.37A2.37,2.37,0,0,0,36.63,81H34.37A2.37,2.37,0,0,0,32,83.37V108H27V77Z"/></svg>