<svg id="Layer_1" data-name="Layer 1" xmlns="http://www.w3.org/2000/svg" viewBox="0 0 140 140"><defs><style>.cls-1{fill:#f2f2f2;}.cls-2{fill:#c2c2c2;}.cls-3,.cls-5{fill:none;stroke-miterlimit:10;stroke-width:2px;}.cls-3{stroke:#293052;}.cls-4{fill:#e88024;}.cls-5{stroke:#e88024;}</style></defs><title>webinars_video</title><rect class="cls-1" x="1" y="1" width="138" height="138"/><path class="cls-2" d="M138,2V138H2V2H138m2-2H0V140H140V0Z"/><polygon class="cls-3" points="75 94 21 94 21 24 119 24 119 94 75 94"/><rect class="cls-3" x="25" y="28" width="90" height="50"/><rect class="cls-3" x="38" y="38" width="65" height="31"/><rect class="cls-3" x="25" y="113" width="90" height="4"/><polygon class="cls-3" points="78.8 113 60.8 113 63.8 94 75.8 94 78.8 113"/><path class="cls-4" d="M52.5,53.5a5.25,5.25,0,1,0-5.25-5.25A5.27,5.27,0,0,0,52.5,53.5Zm0,2.63C49,56.13,42,57.83,42,61.38V64H63V61.38C63,57.83,56,56.13,52.5,56.13Z"/><polyline class="cls-5" points="70 57 75 52 80 52 83 49 86 52 90 46 93 46 96 43"/><rect class="cls-4" x="70" y="62" width="27" height="2"/></svg>