<svg id="Layer_1" data-name="Layer 1" xmlns="http://www.w3.org/2000/svg" viewBox="0 0 140 140"><defs><style>.cls-1{fill:#f2f2f2;}.cls-2{fill:#c2c2c2;}.cls-3,.cls-4{fill:none;stroke-miterlimit:10;}.cls-3{stroke:#e98024;stroke-width:1.86px;}.cls-4{stroke:#2a3052;stroke-width:2px;}</style></defs><title>whats_new</title><rect class="cls-1" x="1" y="1" width="138" height="138"/><path class="cls-2" d="M138,2V138H2V2H138m2-2H0V140H140V0Z"/><line class="cls-3" x1="100" y1="65" x2="120" y2="65"/><line class="cls-3" x1="98.73" y1="50.17" x2="119.06" y2="45.09"/><line class="cls-3" x1="98.73" y1="80.66" x2="119.06" y2="85.74"/><path class="cls-4" d="M71,50H36A15,15,0,0,0,21,65h0A15,15,0,0,0,36,80H71L86,90V40Z"/><polygon class="cls-4" points="40 80 45 101 50 101 50 80 40 80"/><line class="cls-4" x1="71" y1="50" x2="71" y2="81"/><line class="cls-4" x1="59" y1="50" x2="59" y2="81"/><path class="cls-4" d="M85.18,56.88a7.5,7.5,0,0,1,0,15"/></svg>