<svg id="Layer_1" data-name="Layer 1" xmlns="http://www.w3.org/2000/svg" viewBox="0 0 140 140"><defs><style>.cls-1{fill:#f2f2f2;}.cls-2{fill:#c2c2c2;}.cls-3,.cls-4,.cls-5{fill:none;stroke-miterlimit:10;}.cls-3,.cls-4{stroke:#293052;}.cls-3{stroke-width:1.99px;}.cls-4{stroke-width:2px;}.cls-5{stroke:#e98024;stroke-width:1.86px;}.cls-6{fill:#293052;}</style></defs><title>w_icon</title><rect class="cls-1" x="1" y="1" width="138" height="138"/><path class="cls-2" d="M138,2V138H2V2H138m2-2H0V140H140V0Z"/><rect class="cls-3" x="52" y="33" width="68" height="44"/><line class="cls-4" x1="85" y1="78" x2="85" y2="106"/><polyline class="cls-4" points="69.87 106.32 85.11 91.08 100.34 106.32"/><polyline class="cls-4" points="59 70 112 70 112 37"/><polyline class="cls-5" points="63.11 65.76 74.72 53.25 82.61 58.99 91.86 48.31 97.74 52.82 105.2 43.87"/><line class="cls-4" x1="62" y1="106" x2="109" y2="106"/><circle class="cls-6" cx="34.5" cy="40.5" r="6.5"/><path class="cls-6" d="M24.9,50A4.9,4.9,0,0,0,20,54.9V81h4V58.57a.7.7,0,0,1,.68-.65c.36,0,.32.65.32.65V81h1v27h5V83.37A2.37,2.37,0,0,1,33.37,81h2.25A2.37,2.37,0,0,1,38,83.37V108h5V57.59A2.59,2.59,0,0,1,45.59,55H62V50Z"/></svg>