<svg id="Layer_1" data-name="Layer 1" xmlns="http://www.w3.org/2000/svg" viewBox="0 0 140 140"><defs><style>.cls-1{fill:#f2f2f2;}.cls-2{fill:#c2c2c2;}.cls-3{fill:#293052;}.cls-4{fill:none;stroke:#e88024;stroke-width:2px;}</style></defs><title>c_icon</title><rect class="cls-1" x="1" y="1" width="138" height="138"/><path class="cls-2" d="M138,2V138H2V2H138m2-2H0V140H140V0Z"/><path class="cls-3" d="M72.15,27.49s0-.84-1.51-1.19c0,0-3.31-.8-5.37.45a2.61,2.61,0,0,0-1,1.37,14.72,14.72,0,0,0-.27,2.7l.47,2.25s-.61-.16-.34,1.17c0,0,.55,1.94.92,1.7a9.85,9.85,0,0,0,1.09,2.34l0,1.45a2.07,2.07,0,0,0-.45,1l-1,1s-4,1.24-5.85,1.91a17.67,17.67,0,0,0-1.2,3.08A5.41,5.41,0,0,1,57.57,48a24.18,24.18,0,0,1-1.32,4H81.47A50.5,50.5,0,0,1,80,46.69s-.48-2.44-1.19-3c0,0-5.5-1.86-5.66-1.91a8,8,0,0,1-1-.82s-.16-1.08-.42-1.18l0-1.53a6.16,6.16,0,0,0,1.12-2.35s.28.7.94-1.74c0,0,.29-1.24-.3-1.07a5,5,0,0,1,.44-1.41,2.47,2.47,0,0,0,.21-1.16A9.31,9.31,0,0,0,74,28.75C73.85,28.37,73.66,27.76,72.15,27.49Z"/><path class="cls-3" d="M110.52,49.49s0-.84-1.51-1.19c0,0-3.31-.8-5.37.45a2.61,2.61,0,0,0-1,1.37,14.67,14.67,0,0,0-.27,2.7l.47,2.25s-.61-.16-.34,1.17c0,0,.55,1.94.92,1.7a9.85,9.85,0,0,0,1.09,2.35l0,1.45a2.07,2.07,0,0,0-.45,1l-1,1s-4,1.24-5.85,1.91a17.68,17.68,0,0,0-1.21,3.08A5.42,5.42,0,0,1,95.93,70a24.13,24.13,0,0,1-1.32,4h25.23a50.62,50.62,0,0,1-1.47-5.31s-.48-2.44-1.19-3c0,0-5.5-1.86-5.66-1.91a7.9,7.9,0,0,1-1-.82s-.16-1.08-.42-1.18l0-1.53a6.15,6.15,0,0,0,1.12-2.35s.28.7.94-1.75c0,0,.29-1.24-.3-1.07a5,5,0,0,1,.44-1.41,2.47,2.47,0,0,0,.21-1.16,9.32,9.32,0,0,0-.14-1.76C112.21,50.37,112,49.76,110.52,49.49Z"/><path class="cls-3" d="M100.57,90.49s0-.84-1.51-1.19c0,0-3.31-.8-5.36.45a2.61,2.61,0,0,0-1,1.36,14.74,14.74,0,0,0-.27,2.7l.47,2.25s-.61-.16-.34,1.17c0,0,.55,1.94.92,1.7a9.83,9.83,0,0,0,1.09,2.34l0,1.45a2.07,2.07,0,0,0-.45,1l-1,1s-4,1.24-5.85,1.91a17.61,17.61,0,0,0-1.2,3.08A5.45,5.45,0,0,1,86,111a24.13,24.13,0,0,1-1.32,4h25.23a50.4,50.4,0,0,1-1.47-5.31s-.48-2.44-1.19-3c0,0-5.5-1.86-5.66-1.91a7.94,7.94,0,0,1-1-.82s-.16-1.08-.42-1.18l0-1.53a6.16,6.16,0,0,0,1.12-2.35s.28.7.94-1.75c0,0,.29-1.24-.3-1.07a5.06,5.06,0,0,1,.44-1.41,2.47,2.47,0,0,0,.21-1.16,9.26,9.26,0,0,0-.14-1.76C102.27,91.37,102.08,90.76,100.57,90.49Z"/><path class="cls-3" d="M35.75,49.49s0-.84-1.51-1.19c0,0-3.31-.8-5.36.45a2.61,2.61,0,0,0-1,1.37,14.74,14.74,0,0,0-.27,2.7l.47,2.25s-.61-.16-.34,1.17c0,0,.55,1.94.92,1.7a9.83,9.83,0,0,0,1.09,2.35l0,1.45a2.07,2.07,0,0,0-.45,1l-1,1s-4,1.24-5.85,1.91a17.72,17.72,0,0,0-1.21,3.08A5.42,5.42,0,0,1,21.16,70a24.13,24.13,0,0,1-1.32,4H45.07a50.58,50.58,0,0,1-1.47-5.31s-.48-2.44-1.19-3c0,0-5.5-1.86-5.66-1.91a7.93,7.93,0,0,1-1-.82s-.16-1.08-.42-1.18l0-1.53a6.16,6.16,0,0,0,1.12-2.35s.28.7.94-1.75c0,0,.29-1.24-.3-1.07a5,5,0,0,1,.44-1.41,2.47,2.47,0,0,0,.21-1.16,9.24,9.24,0,0,0-.14-1.76C37.44,50.37,37.25,49.76,35.75,49.49Z"/><path class="cls-3" d="M44.21,90.49s0-.84-1.51-1.19c0,0-3.31-.8-5.37.45a2.61,2.61,0,0,0-1,1.36,14.7,14.7,0,0,0-.27,2.7l.47,2.25s-.61-.16-.34,1.17c0,0,.55,1.94.92,1.7a9.84,9.84,0,0,0,1.09,2.34l0,1.45a2.07,2.07,0,0,0-.45,1l-1,1s-4,1.24-5.85,1.91a17.71,17.71,0,0,0-1.21,3.08,5.4,5.4,0,0,1-.18,1.27,24.11,24.11,0,0,1-1.32,4H53.53a50.4,50.4,0,0,1-1.47-5.31s-.48-2.44-1.19-3c0,0-5.5-1.86-5.66-1.91a8,8,0,0,1-1-.82s-.16-1.08-.42-1.18l0-1.53a6.16,6.16,0,0,0,1.12-2.35s.28.7.94-1.75c0,0,.29-1.24-.3-1.07A5,5,0,0,1,46,94.67a2.47,2.47,0,0,0,.21-1.16A9.27,9.27,0,0,0,46,91.75C45.91,91.37,45.72,90.76,44.21,90.49Z"/><line class="cls-4" x1="69" y1="59" x2="69" y2="66"/><line class="cls-4" x1="88.49" y1="72.41" x2="82.2" y2="74.79"/><line class="cls-4" x1="48.71" y1="72.41" x2="55" y2="74.79"/><line class="cls-4" x1="88.38" y1="98.26" x2="80.26" y2="89.12"/><line class="cls-4" x1="57.69" y1="89.12" x2="49.57" y2="98.26"/><circle class="cls-4" cx="69" cy="80" r="11"/><line class="cls-4" x1="58" y1="80" x2="80" y2="80"/><line class="cls-4" x1="59" y1="75" x2="79" y2="75"/><line class="cls-4" x1="59" y1="85" x2="79" y2="85"/><line class="cls-4" x1="74" y1="70" x2="74" y2="90"/><line class="cls-4" x1="69" y1="69" x2="69" y2="91"/><line class="cls-4" x1="64" y1="70" x2="64" y2="90"/></svg>