<svg id="Layer_1" data-name="Layer 1" xmlns="http://www.w3.org/2000/svg" viewBox="0 0 140 140"><defs><style>.cls-1{fill:#ffffff;}.cls-2{fill:#ffffff;}.cls-3,.cls-4,.cls-5,.cls-6{fill:none;stroke-miterlimit:10;}.cls-3,.cls-4,.cls-5{stroke:#293052;}.cls-3,.cls-6{stroke-width:2px;}.cls-4{stroke-width:2px;}.cls-5{stroke-width:1.93px;}.cls-6{stroke:#2a3052;}</style></defs><title>MT5</title><rect class="cls-1" x="1" y="1" width="138" height="138"/><path class="cls-2" d="M138,2V138H2V2H138m2-2H0V140H140V0Z"/><rect class="cls-3" x="20" y="24" width="100" height="70"/><rect class="cls-3" x="25" y="29" width="90" height="50"/><rect class="cls-4" x="25" y="113" width="90" height="4"/><polygon class="cls-5" points="80.02 113 60.02 113 63.02 94 77.02 94 80.02 113"/><polyline class="cls-6" points="35 69 35 39 39 39 45 57 51 39 55 39 55 69"/><line class="cls-6" x1="63" y1="39" x2="83" y2="39"/><line class="cls-6" x1="73" y1="38" x2="73" y2="69"/><path class="cls-6" d="M90,61h0a6,6,0,0,0,6,6h4a6,6,0,0,0,6-6V57a6,6,0,0,0-6-6H90V39h16"/></svg>